<svg id="Capa_1" enable-background="new 0 0 512 512" height="512" viewBox="0 0 512 512" width="512" xmlns="http://www.w3.org/2000/svg"><g><g><g><path d="m504.5 78.01v355.98c0 5.52-4.48 10-10 10h-477c-5.52 0-10-4.48-10-10v-355.98c0-5.52 4.48-10 10-10h477c5.52 0 10 4.48 10 10z" fill="#e8e6ed"/><path d="m504.5 78.01v355.98c0 5.52-4.48 10-10 10h-119.78c110.64-95.77 108.18-318.45 105.57-375.98h14.21c5.52 0 10 4.48 10 10z" fill="#d1d0d8"/><path d="m504.5 78.01v53.03h-497v-53.03c0-5.52 4.48-10 10-10h477c5.52 0 10 4.48 10 10z" fill="#898993"/><path d="m504.5 78.01v53.03h-23.83c.82-27.46.23-49.69-.38-63.03h14.21c5.52 0 10 4.48 10 10z" fill="#717177"/></g><g><path d="m442.66 180.18v212c0 5.52-4.48 10-10 10h-353.32c-5.52 0-10-4.48-10-10v-212c0-5.52 4.48-10 10-10h353.32c5.52 0 10 4.48 10 10z" fill="#22d0ff"/><path d="m442.66 180.18v212c0 5.52-4.48 10-10 10h-74.51c44.31-65.75 60.76-159.71 66.33-232h8.18c5.52 0 10 4.48 10 10z" fill="#06b9ff"/><path d="m442.66 354.82v37.36c0 5.52-4.48 10-10 10h-353.32c-5.52 0-10-4.48-10-10v-38.04l90.19-80.38c3.71-3.3 9.29-3.38 13.1-.18l64.27 54.13c3.09 2.6 7.44 3.09 11.02 1.24l31.07-16.01c3.63-1.86 8.03-1.34 11.12 1.33l20.46 17.69 30.4 26.29c3.96 3.43 9.9 3.21 13.61-.5l24.68-24.68c2.95-2.95 7.43-3.75 11.22-2.02z" fill="#2fd92d"/><path d="m442.66 354.82v37.36c0 5.52-4.48 10-10 10h-353.32c-5.52 0-10-4.48-10-10v-7.54c119.65-8.92 196.99-33.4 241.23-52.68l30.4 26.29c3.96 3.43 9.9 3.21 13.61-.5l24.68-24.68c2.95-2.95 7.43-3.75 11.22-2.02z" fill="#1fbf33"/><g><g><circle cx="442.66" cy="278.29" fill="#83f6ff" r="32.623"/></g></g><g><g><circle cx="69.34" cy="278.29" fill="#83f6ff" r="32.623"/></g></g><circle cx="343.023" cy="247.023" fill="#ff9700" r="31.697"/><path d="m374.72 247.02c0 17.51-14.19 31.7-31.7 31.7-3.92 0-7.68-.71-11.14-2.02 12.01-4.51 20.55-16.1 20.55-29.68s-8.54-25.16-20.55-29.67c3.46-1.31 7.22-2.02 11.14-2.02 17.51 0 31.7 14.19 31.7 31.69z" fill="#ff7300"/></g></g><g><path d="m494.5 60.514h-140.152c-4.143 0-7.5 3.357-7.5 7.5s3.357 7.5 7.5 7.5h140.152c1.379 0 2.5 1.121 2.5 2.5v45.526h-482v-45.526c0-1.379 1.122-2.5 2.5-2.5h302.325c4.143 0 7.5-3.357 7.5-7.5s-3.357-7.5-7.5-7.5h-302.325c-9.649 0-17.5 7.851-17.5 17.5v355.973c0 9.649 7.851 17.5 17.5 17.5h477c9.649 0 17.5-7.851 17.5-17.5v-355.973c0-9.65-7.851-17.5-17.5-17.5zm0 375.972h-477c-1.378 0-2.5-1.121-2.5-2.5v-295.446h482v295.446c0 1.379-1.121 2.5-2.5 2.5z"/><path d="m47.498 92.026c-.022 0-.044 0-.066 0-4.111 0-7.462 3.315-7.498 7.436-.036 4.142 3.292 7.528 7.435 7.564l.113.001h.066c4.111 0 7.462-3.315 7.498-7.436.036-4.142-3.292-7.528-7.435-7.564z"/><path d="m70.141 92.026c-.022 0-.044 0-.066 0-4.111 0-7.462 3.315-7.498 7.436-.036 4.142 3.292 7.528 7.435 7.564l.113.001h.066c4.111 0 7.462-3.315 7.498-7.436.036-4.142-3.292-7.528-7.435-7.564z"/><path d="m92.784 92.026c-.022 0-.044 0-.066 0-4.111 0-7.462 3.315-7.498 7.436-.036 4.142 3.292 7.528 7.435 7.564l.113.001h.066c4.111 0 7.462-3.315 7.498-7.436.036-4.142-3.292-7.528-7.435-7.564z"/><path d="m464.567 107.026c4.143 0 7.5-3.357 7.5-7.5s-3.357-7.5-7.5-7.5h-13.956c-4.143 0-7.5 3.357-7.5 7.5s3.357 7.5 7.5 7.5z"/><path d="m444.372 261.037c-3.035-2.817-7.781-2.642-10.599.396-2.818 3.036-2.641 7.781.396 10.599l6.743 6.259-6.743 6.259c-3.036 2.817-3.214 7.563-.396 10.599 1.478 1.593 3.485 2.398 5.499 2.398 1.825 0 3.656-.663 5.1-2.003l12.667-11.756c1.529-1.419 2.398-3.411 2.398-5.497s-.869-4.078-2.398-5.497z"/><path d="m450.16 238.88v-58.7c0-9.649-7.851-17.5-17.5-17.5h-195.306c-4.142 0-7.5 3.357-7.5 7.5s3.358 7.5 7.5 7.5h195.306c1.379 0 2.5 1.121 2.5 2.5v58.701c-18.55 3.523-32.623 19.849-32.623 39.41s14.073 35.886 32.623 39.41v25.461l-41.569-18.94c-6.606-3.011-14.495-1.583-19.629 3.549l-24.688 24.682c-.925.922-2.419.976-3.402.123l-50.854-43.977c-5.435-4.701-13.074-5.608-19.46-2.32l-31.069 16.004c-.898.465-1.98.343-2.754-.31l-64.277-54.129c-6.61-5.566-16.463-5.428-22.915.321l-77.703 69.245v-19.71c18.55-3.523 32.624-19.849 32.624-39.41s-14.074-35.886-32.624-39.41v-58.7c0-1.379 1.122-2.5 2.5-2.5h123.491c4.142 0 7.5-3.357 7.5-7.5s-3.358-7.5-7.5-7.5h-123.491c-9.649 0-17.5 7.851-17.5 17.5v58.701c-18.55 3.523-32.623 19.849-32.623 39.41s14.073 35.886 32.623 39.41v74.48c0 9.649 7.851 17.5 17.5 17.5h76.993c4.142 0 7.5-3.357 7.5-7.5s-3.358-7.5-7.5-7.5h-76.993c-1.378 0-2.5-1.121-2.5-2.5v-34.677l87.682-78.139c.923-.82 2.331-.841 3.274-.047l64.276 54.128c5.419 4.563 12.992 5.417 19.286 2.172l31.069-16.004c.915-.471 2.004-.339 2.779.331l50.854 43.977c3.28 2.836 7.362 4.239 11.438 4.239 4.502 0 8.995-1.714 12.383-5.101l24.688-24.682c.732-.732 1.857-.937 2.805-.506l47.788 21.774v32.535c0 1.379-1.121 2.5-2.5 2.5h-241.806c-4.142 0-7.5 3.357-7.5 7.5s3.358 7.5 7.5 7.5h241.804c9.649 0 17.5-7.851 17.5-17.5v-74.481c18.55-3.523 32.623-19.849 32.623-39.41s-14.073-35.886-32.623-39.41zm-405.943 39.41c0-13.853 11.27-25.123 25.123-25.123s25.124 11.271 25.124 25.123-11.271 25.123-25.124 25.123-25.123-11.27-25.123-25.123zm398.443 25.123c-13.853 0-25.123-11.271-25.123-25.123s11.271-25.123 25.123-25.123 25.123 11.271 25.123 25.123-11.27 25.123-25.123 25.123z"/><path d="m78.226 295.147c2.818-3.035 2.641-7.781-.395-10.599l-6.744-6.259 6.744-6.259c3.036-2.817 3.213-7.563.395-10.599-2.817-3.037-7.563-3.213-10.599-.396l-12.667 11.758c-1.529 1.419-2.398 3.411-2.398 5.497s.869 4.078 2.398 5.497l12.667 11.756c1.444 1.34 3.274 2.003 5.1 2.003 2.014 0 4.022-.806 5.499-2.399z"/><path d="m219 253.167h85.311c2.958 18.705 19.189 33.053 38.712 33.053 21.453 0 38.927-17.326 39.184-38.72h12.793c4.143 0 7.5-3.357 7.5-7.5s-3.357-7.5-7.5-7.5h-15.581c-5.783-14.442-19.912-24.674-36.395-24.674-18.567 0-34.149 12.981-38.176 30.341h-85.848c-4.142 0-7.5 3.357-7.5 7.5s3.358 7.5 7.5 7.5zm124.023-30.341c7.911 0 14.947 3.817 19.364 9.705-3.855.312-6.888 3.533-6.888 7.469 0 4.143 3.357 7.5 7.5 7.5h4.208c-.256 13.122-11.002 23.72-24.184 23.72-11.22 0-20.679-7.677-23.405-18.053h4.382c4.143 0 7.5-3.357 7.5-7.5s-3.357-7.5-7.5-7.5h-3.488c3.543-8.973 12.294-15.341 22.511-15.341z"/><path d="m283.25 230.735c4.143 0 7.5-3.357 7.5-7.5s-3.357-7.5-7.5-7.5h-23.5c-4.142 0-7.5 3.357-7.5 7.5s3.358 7.5 7.5 7.5z"/></g></g></svg>